<?xml version="1.0" encoding="utf-8"?>
<svg viewBox="0 0 155.99 35.81" xmlns="http://www.w3.org/2000/svg">
  <g transform="translate(-1.1 -2.25)">
    <path d="m12.46 37.72c-16.46 2.53-10.19-9.91-10.19-9.91a43.15 43.15 0 0 1 4.73-7.07 12.81 12.81 0 0 1 -.93-4.74 13.08 13.08 0 0 1 21.1-10.39 55.75 55.75 0 0 1 9.08-3.37c-18.64 8.21-26.25 17.48-29.4 21.63-10.06 15.24 4.81 13.93 5.61 13.85z" fill="#5830e0"/>
    <path d="m28.58 30s-6.88.85-12.58-1.35l-.75-.21c1.15-3.22 5.31-13.31 14.96-19.44a13.08 13.08 0 0 1 -4.61 18.34 7.08 7.08 0 0 0 2.98 2.66z" fill="#081828"/>
  </g>
  <text style="fill: rgb(51, 51, 51); font-family: &quot;Arial Rounded MT Bold&quot;; font-size: 28px; white-space: pre;" x="5" y="0"><tspan style="fill: rgb(89, 48, 225); font-size: 20px; word-spacing: 0px;" x="36.074" y="23.69">C</tspan><tspan style="fill: rgb(89, 48, 225); font-size: 18px; word-spacing: 0px;">onfirm</tspan><tspan style="fill: rgb(7, 24, 40); font-size: 20px; word-spacing: 0px;">D</tspan><tspan style="fill: rgb(7, 24, 40); font-size: 14px; word-spacing: 0px;">eals</tspan></text>
  <text style="white-space: pre; fill: rgb(51, 51, 51); font-family: Arial, sans-serif; font-size: 28px;" x="103.611" y="29.596"> </text>
  <text style="white-space: pre; fill: rgb(51, 51, 51); font-family: Arial, sans-serif; font-size: 28px;" x="124.354" y="35.606"> </text>
</svg>